# xmcd
#
# Track frame offsets:
# 150
# 35422
# 70785
# 88867
# 112632
# 138715
# 181357
# 212162
# 246020
# 278327
#
# Disc length: 4440 seconds
#
#
# Revision: 2
# Processed by: cddbd v1.5.1PL2 Copyright (c) Steve Scherf et al.
# Submitted via: FreeRIP 2.945 
#
DISCID=8611560a
DTITLE=Joe Lovano - I'm All For You
DYEAR=2004
DGENRE=Jazz
TTITLE0=I'm all for you
TTITLE1=Don't blame me
TTITLE2=Monk's mood
TTITLE3=The summary (from Suite dor Pops)
TTITLE4=Stella by starlight
TTITLE5=I waited for you
TTITLE6=Like someone in love
TTITLE7=Early autumn
TTITLE8=Countdown
TTITLE9=Data track
EXTD=Musicians:\nJoe Lovano - Tenor Saxophone\nHank Jones - Piano\nGeorge Mraz - Bass\nPaul Motian - Drums and Cymbals\n\nProduced by Joe Lovano\nRecorded by James Farber\nBlue Note Records - 2004
EXTT0=
EXTT1=
EXTT2=
EXTT3=
EXTT4=
EXTT5=
EXTT6=
EXTT7=
EXTT8=
EXTT9=
PLAYORDER=
